<?xml version="1.0" encoding="UTF-8"?>
<svg width="25" height="24" viewBox="0 0 25 24" xmlns="http://www.w3.org/2000/svg">
<path d="M5.37 7.347H.31v15.39h5.06V7.347ZM2.84 5.337h-.03c-1.7 0-2.81-1.17-2.81-2.63 0-1.49 1.14-2.63 2.87-2.63 1.73 0 2.81 1.14 2.81 2.63 0 1.46-1.08 2.63-2.84 2.63Zm20.45 17.4h-5.06v-8.24c0-2.05-.73-3.44-2.57-3.44-1.4 0-2.23.94-2.6 1.85-.13.32-.17.78-.17 1.23v8.6h-5.06s.07-13.95 0-15.39h5.06v2.18c.67-1.05 1.88-2.54 4.54-2.54 3.31 0 5.79 2.16 5.79 6.82v8.93Z" fill="#FFF"/></svg>